<?xml version="1.0" encoding="utf-8"?>
<!-- Generator: Adobe Illustrator 23.0.6, SVG Export Plug-In . SVG Version: 6.00 Build 0)  -->
<svg version="1.1" id="Buddy" xmlns="http://www.w3.org/2000/svg" xmlns:xlink="http://www.w3.org/1999/xlink" x="0px" y="0px"
	 width="1207px" height="124.094px" viewBox="0 0 1207 124.094" enable-background="new 0 0 1207 124.094" xml:space="preserve">
<g id="XMLID_725_">
	<path fill-rule="evenodd" clip-rule="evenodd" fill="#F27ABB" d="M69.509,12.689c-10.247,0.132-58.658,1.685-61.97,41.946
		c-1.125,13.676-7.828,30.37-2.847,45.733c0.588,1.815,2.742,5.077,2.742,5.077s5.693,11.025,59.23,9.218
		s61.542-13.962,61.542-13.962s1.831-3.532,2.258-5.461c2.559-11.558,3.825-23.094,2.612-32.602
		C127.243,16.893,80.546,12.547,69.509,12.689z"/>
	<path fill-rule="evenodd" clip-rule="evenodd" fill="#FFFFFF" d="M68.365,22.696C81.76,23.509,92.801,33.74,92.616,44.335
		C92.425,55.263,81.09,63.022,67.705,62.21c-13.393-0.812-24.435-11.044-24.25-21.639C43.645,29.643,54.98,21.884,68.365,22.696z"/>
	<path fill-rule="evenodd" clip-rule="evenodd" fill="#333333" d="M80.846,31.64c14.844,0.901,15.305,22.186,0.402,21.281
		C66.405,52.021,65.944,30.736,80.846,31.64z"/>
	<path fill="#89115E" d="M98.928,78.419c-0.874,8.408-15.6,14.086-32.894,12.684c-17.295-1.4-30.608-9.348-29.729-17.754
		c0.872-8.406,14.291-1.506,31.585-0.105C85.184,74.646,99.804,70.015,98.928,78.419z"/>
	<path fill="#FFFFFF" d="M88.793,74.292c-3.185,0.337-6.441,0.209-9.693,0.132c-0.396,0.064-0.791,0.129-1.178,0.2
		c-0.061,1.564,0.862,3.16,2.618,4.147c1.154,0.649,2.708,0.79,4.062,0.592c1.988-0.29,3.475-1.387,4.263-2.668
		c0.469-0.758,0.474-1.575,0.185-2.36C88.964,74.317,88.873,74.305,88.793,74.292z"/>
	<path fill="#FFFFFF" d="M49.091,71.05c-1.785-0.294-3.589-0.485-5.393-0.483c-0.115,0.702-0.056,1.43,0.131,2.106
		c0.499,1.803,2.386,3.082,4.834,3.416c2.8,0.383,5.21-1.177,6.166-2.875c0.131-0.231,0.215-0.476,0.267-0.736
		C53.17,72.075,51.141,71.504,49.091,71.05z"/>
	<path fill-rule="evenodd" clip-rule="evenodd" fill="#DD5FAA" d="M26.166,59.98c0.461-0.632,1.121-0.789,1.862-0.729
		c0.104,0.009,0.208,0.017,0.312,0.025c0.882,0.075,1.632,1.026,1.765,1.901c0.084,0.56-0.043,1.127-0.354,1.561
		c-0.279,0.389-0.807,0.778-1.308,0.764c-0.116-0.003-0.231-0.008-0.346-0.01c-0.559-0.012-1.03-0.097-1.499-0.495
		c-0.429-0.364-0.719-0.892-0.799-1.454C25.718,60.978,25.851,60.414,26.166,59.98z"/>
	<path fill-rule="evenodd" clip-rule="evenodd" fill="#DD5FAA" d="M16.614,62.625c0.537-0.166,1.06-0.29,1.696-0.247
		c1.593,0.107,2.939,1.114,3.046,2.227c0.104,1.079-1.292,1.923-2.929,1.864c-1.531-0.059-3.294-1.027-3.182-2.094
		C15.318,63.668,15.56,62.953,16.614,62.625z"/>
	<path fill-rule="evenodd" clip-rule="evenodd" fill="#DD5FAA" d="M109.325,56.614c0.535-0.168,1.059-0.292,1.697-0.247
		c1.592,0.105,2.939,1.114,3.047,2.225c0.102,1.079-1.295,1.923-2.93,1.864c-1.531-0.059-3.293-1.026-3.182-2.092
		C108.029,57.657,108.272,56.941,109.325,56.614z"/>
	<path fill-rule="evenodd" clip-rule="evenodd" fill="#DD5FAA" d="M19.098,50.036c2.704,0.164,3.196,2.909,0.464,2.743
		C16.859,52.615,16.368,49.871,19.098,50.036z"/>
	<path fill-rule="evenodd" clip-rule="evenodd" fill="#DD5FAA" d="M103.749,53.198c0.181-0.536,0.881-0.859,1.438-0.861
		c0.748-0.004,1.552,0.502,1.773,1.229c0.119,0.39,0.142,0.709,0.07,1.098c-0.135,0.724-0.79,1.253-1.565,1.259
		c-0.999,0.008-1.711-0.747-1.866-1.649C103.532,53.887,103.629,53.556,103.749,53.198z"/>
	<path fill-rule="evenodd" clip-rule="evenodd" fill="#DD5FAA" d="M123.752,61.159c2.703,0.164,3.194,2.907,0.463,2.741
		C121.511,63.736,121.019,60.994,123.752,61.159z"/>
	<path fill-rule="evenodd" clip-rule="evenodd" fill="#DD5FAA" d="M110.984,44.788c0.622-1.321,4.01-0.714,3.381,0.617
		C113.744,46.724,110.356,46.119,110.984,44.788z"/>
	<path fill-rule="evenodd" clip-rule="evenodd" fill="#DD5FAA" d="M29.913,44.751c0.624-1.316,4.01-0.712,3.381,0.617
		C32.673,46.688,29.285,46.083,29.913,44.751z"/>
	<path fill-rule="evenodd" clip-rule="evenodd" fill="#DD5FAA" d="M107.58,66.308c2.275,0.138,2.046,3.741-0.221,3.603
		C105.083,69.773,105.312,66.171,107.58,66.308z"/>
	<path fill="#B2508F" d="M45.414,53.614c-0.969,3.538,5.361,6.242,10.655,7.861c4.247,0.899,8.859,1.556,13.523,1.83
		c2.332,0.138,4.678,0.18,6.985,0.107c8.307-0.35,19.048-1.996,20.271-6.882c2.426-9.23-18.056-3.772-28.728-4.367
		c-2.938-0.028-5.875-0.144-8.877-0.317c-3.001-0.174-6.067-0.405-9.266-0.673C47.857,50.633,44.615,51.723,45.414,53.614
		L45.414,53.614z"/>
	<path fill="#C65C9B" d="M95.191,48.563c-8.575,1.414-17.203,2.519-26.223,2.611c-5.09,0.051-10.152-0.196-15.172-0.542
		c-3.492-0.239-6.958-0.666-10.475-0.288c-3.485,0.376-5.56,2.623-2.345,3.859c6.975,2.683,19.087,2.639,27.634,2.748
		c10.35,0.133,20.592-0.222,30.659-1.602C108.132,54.134,103.963,47.118,95.191,48.563z"/>
</g>
<g>
	<path fill-rule="evenodd" clip-rule="evenodd" fill="#F27ABB" d="M227.828,6.259c-11.306-0.516-64.785-1.924-71.098,42.514
		c-2.144,15.095-7.464,33.362-2.986,50.723c0.529,2.05,2.688,5.808,2.688,5.808s6.183,12.633,65.329,14.089
		s69.411-11.469,69.411-11.469s2.252-3.799,2.85-5.911c3.585-12.653,1.298-25.626,0.59-36.25
		C291.204,14.653,240.006,6.814,227.828,6.259z"/>
	<path fill-rule="evenodd" clip-rule="evenodd" fill="#FFFFFF" d="M225.906,17.283c14.714,1.767,26.212,13.828,25.307,25.566
		c-0.933,12.107-13.943,19.979-28.648,18.213c-14.713-1.767-26.211-13.828-25.306-25.566
		C198.191,23.389,211.202,15.517,225.906,17.283z"/>
	<path fill-rule="evenodd" clip-rule="evenodd" fill="#333333" d="M228.34,25.518c15.209,2.511,11.807,27.408-3.462,24.887
		C209.67,47.894,213.072,22.998,228.34,25.518z"/>
	<path fill-rule="evenodd" clip-rule="evenodd" fill="#DD5FAA" d="M176.914,55.905c0.55-0.671,1.288-0.802,2.101-0.688
		c0.114,0.016,0.228,0.032,0.342,0.048c0.967,0.14,1.731,1.243,1.82,2.223c0.056,0.627-0.122,1.248-0.494,1.709
		c-0.334,0.413-0.942,0.81-1.493,0.763c-0.128-0.011-0.254-0.023-0.381-0.034c-0.615-0.05-1.13-0.174-1.62-0.645
		c-0.449-0.431-0.734-1.035-0.785-1.664C176.354,56.983,176.538,56.365,176.914,55.905z"/>
	<path fill-rule="evenodd" clip-rule="evenodd" fill="#DD5FAA" d="M166.207,58.221c0.603-0.149,1.188-0.253,1.886-0.165
		c1.749,0.222,3.167,1.425,3.211,2.667c0.043,1.203-1.551,2.05-3.353,1.878c-1.684-0.164-3.564-1.351-3.37-2.528
		C164.71,59.294,165.024,58.516,166.207,58.221z"/>
	<path fill-rule="evenodd" clip-rule="evenodd" fill="#DD5FAA" d="M268.823,57.547c0.601-0.152,1.186-0.256,1.887-0.165
		c1.748,0.219,3.166,1.425,3.212,2.664c0.041,1.203-1.555,2.049-3.354,1.878c-1.684-0.164-3.563-1.351-3.371-2.526
		C267.326,58.62,267.641,57.842,268.823,57.547z"/>
	<path fill-rule="evenodd" clip-rule="evenodd" fill="#DD5FAA" d="M169.779,44.42c2.971,0.357,3.332,3.433,0.33,3.072
		C167.14,47.135,166.78,44.06,169.779,44.42z"/>
	<path fill-rule="evenodd" clip-rule="evenodd" fill="#DD5FAA" d="M262.901,53.398c0.235-0.583,1.028-0.895,1.642-0.862
		c0.825,0.044,1.678,0.657,1.873,1.478c0.105,0.44,0.109,0.796,0.004,1.222c-0.197,0.795-0.954,1.339-1.808,1.296
		c-1.102-0.056-1.837-0.939-1.948-1.95C262.616,54.149,262.745,53.787,262.901,53.398z"/>
	<path fill-rule="evenodd" clip-rule="evenodd" fill="#DD5FAA" d="M284.429,63.521c2.969,0.357,3.329,3.43,0.329,3.07
		C281.789,66.234,281.427,63.161,284.429,63.521z"/>
	<path fill-rule="evenodd" clip-rule="evenodd" fill="#DD5FAA" d="M271.435,44.539c0.773-1.425,4.468-0.532,3.687,0.903
		C274.35,46.865,270.654,45.975,271.435,44.539z"/>
	<path fill-rule="evenodd" clip-rule="evenodd" fill="#DD5FAA" d="M182.053,39.258c0.775-1.42,4.468-0.53,3.687,0.903
		C184.967,41.583,181.271,40.693,182.053,39.258z"/>
	<path fill-rule="evenodd" clip-rule="evenodd" fill="#DD5FAA" d="M266.258,68.186c2.499,0.3,2.009,4.281-0.482,3.982
		C263.276,71.868,263.768,67.887,266.258,68.186z"/>
	<path fill="#89115E" d="M223.68,90.956c-8.451-1.185-5.849-19.325,2.6-18.137C234.73,74.007,232.13,92.144,223.68,90.956z"/>
</g>
<g>
	<path fill-rule="evenodd" clip-rule="evenodd" fill="#F27ABB" d="M525.364,4.123c-31.951,0-82.315,11.572-68.355,60.335
		c11.262,39.336,41.206,43.833,41.206,43.833s-4.803,1.696-1.346,3.992c3.647,2.423,9.934,2.379,11.995,1.862
		c0.43-0.108-1.497,2.449,0.207,2.272c1.704-0.178,2.774-2.671,5.084-2.756c2.705-0.099,9.862-0.499,12.405-0.23
		c13.015,1.378,19.492-2.191,19.492-2.191s2.156,10.299,3.894,9.081c5.897-4.134-0.87-12.341-0.87-12.341
		s36.787-16.017,47.001-41.748C612.277,25.421,557.316,4.123,525.364,4.123z"/>
	<path fill-rule="evenodd" clip-rule="evenodd" fill="#FFFFFF" d="M523.31,35.12c10.11,0.697,17.606,9.492,16.537,18.602
		c-1.103,9.395-10.399,16.067-20.503,15.371c-10.109-0.697-17.606-9.492-16.536-18.602C503.91,41.096,513.207,34.424,523.31,35.12z"
		/>
	<path fill-rule="evenodd" clip-rule="evenodd" fill="#333333" d="M522.091,53.959c10.042,0.717,10.498,14.989,0.416,14.269
		C512.465,67.511,512.009,53.239,522.091,53.959z"/>
	<path fill-rule="evenodd" clip-rule="evenodd" fill="#DD5FAA" d="M489.357,69.164c0.355-0.607,0.858-0.762,1.421-0.71
		c0.079,0.007,0.158,0.014,0.237,0.022c0.67,0.065,1.234,0.967,1.329,1.801c0.06,0.534-0.041,1.076-0.28,1.493
		c-0.215,0.373-0.62,0.749-1,0.74c-0.088-0.002-0.175-0.006-0.263-0.007c-0.425-0.008-0.783-0.084-1.137-0.46
		c-0.324-0.344-0.541-0.846-0.598-1.382C489.009,70.12,489.114,69.58,489.357,69.164z"/>
	<path fill-rule="evenodd" clip-rule="evenodd" fill="#DD5FAA" d="M482.072,71.764c0.41-0.163,0.808-0.285,1.292-0.249
		c1.211,0.09,2.228,1.04,2.302,2.102c0.071,1.029-0.996,1.846-2.241,1.803c-1.164-0.044-2.499-0.954-2.406-1.974
		C481.08,72.769,481.269,72.084,482.072,71.764z"/>
	<path fill-rule="evenodd" clip-rule="evenodd" fill="#DD5FAA" d="M552.637,65.301c0.408-0.165,0.807-0.287,1.292-0.249
		c1.21,0.088,2.228,1.04,2.302,2.1c0.07,1.029-0.998,1.846-2.242,1.803c-1.164-0.044-2.498-0.954-2.406-1.972
		C551.644,66.307,551.834,65.622,552.637,65.301z"/>
	<path fill-rule="evenodd" clip-rule="evenodd" fill="#DD5FAA" d="M484.049,59.727c2.056,0.135,2.411,2.752,0.334,2.615
		C482.328,62.207,481.974,59.591,484.049,59.727z"/>
	<path fill-rule="evenodd" clip-rule="evenodd" fill="#DD5FAA" d="M548.419,62.084c0.142-0.513,0.676-0.827,1.1-0.833
		c0.569-0.01,1.177,0.467,1.34,1.159c0.088,0.371,0.103,0.676,0.045,1.047c-0.108,0.693-0.61,1.202-1.199,1.214
		c-0.76,0.015-1.297-0.699-1.408-1.56C548.249,62.744,548.325,62.427,548.419,62.084z"/>
	<path fill-rule="evenodd" clip-rule="evenodd" fill="#DD5FAA" d="M563.58,69.527c2.055,0.135,2.409,2.75,0.333,2.613
		C561.858,72.005,561.502,69.39,563.58,69.527z"/>
	<path fill-rule="evenodd" clip-rule="evenodd" fill="#DD5FAA" d="M553.981,54c0.483-1.266,3.055-0.713,2.568,0.563
		C556.067,55.827,553.494,55.275,553.981,54z"/>
	<path fill-rule="evenodd" clip-rule="evenodd" fill="#DD5FAA" d="M492.313,54.598c0.484-1.262,3.055-0.711,2.568,0.563
		C494.399,56.425,491.825,55.874,492.313,54.598z"/>
	<path fill-rule="evenodd" clip-rule="evenodd" fill="#DD5FAA" d="M551.242,74.569c1.729,0.114,1.531,3.555-0.193,3.441
		C549.319,77.896,549.519,74.455,551.242,74.569z"/>
	<path fill="#89115E" d="M503.379,77.236c-0.027,6.133,8.982,11.384,20.124,11.732c11.142,0.35,20.197-4.337,20.221-10.468
		c0.028-6.131-9.022-2.209-20.163-2.557C512.418,75.595,503.404,71.107,503.379,77.236z"/>
	<path fill="#FFFFFF" d="M510.138,75.057c2.01,0.493,4.099,0.657,6.181,0.857c0.249,0.077,0.496,0.155,0.738,0.237
		c-0.07,1.133-0.77,2.212-1.961,2.785c-0.782,0.377-1.785,0.357-2.635,0.108c-1.249-0.365-2.123-1.273-2.537-2.259
		c-0.247-0.583-0.193-1.173,0.046-1.716C510.027,75.061,510.086,75.06,510.138,75.057z"/>
	<path fill="#FFFFFF" d="M535.718,75.838c1.161-0.072,2.326-0.068,3.478,0.075c0.024,0.515-0.064,1.036-0.23,1.508
		c-0.444,1.261-1.738,2.035-3.325,2.084c-1.815,0.057-3.245-1.258-3.738-2.558c-0.067-0.177-0.104-0.36-0.119-0.552
		C533.042,76.257,534.377,76.004,535.718,75.838z"/>
</g>
<g>
	<path fill-rule="evenodd" clip-rule="evenodd" fill="#F27ABB" d="M675.364,4.123c-31.951,0-82.315,11.572-68.355,60.335
		c11.262,39.336,41.206,43.833,41.206,43.833s-4.803,1.696-1.346,3.992c3.647,2.423,9.934,2.379,11.995,1.862
		c0.43-0.108-1.497,2.449,0.207,2.272c1.704-0.178,2.774-2.671,5.084-2.756c2.705-0.099,9.862-0.499,12.405-0.23
		c13.015,1.378,19.492-2.191,19.492-2.191s2.156,10.299,3.894,9.081c5.897-4.134-0.87-12.341-0.87-12.341
		s36.787-16.017,47.001-41.748C762.277,25.421,707.316,4.123,675.364,4.123z"/>
	<path fill-rule="evenodd" clip-rule="evenodd" fill="#FFFFFF" d="M673.31,35.12c10.11,0.697,17.606,9.492,16.537,18.602
		c-1.103,9.395-10.399,16.067-20.503,15.371c-10.109-0.697-17.606-9.492-16.536-18.602C653.91,41.096,663.207,34.424,673.31,35.12z"
		/>
	<path fill-rule="evenodd" clip-rule="evenodd" fill="#333333" d="M672.091,42.959c10.042,0.717,10.498,14.989,0.416,14.269
		C662.465,56.511,662.009,42.239,672.091,42.959z"/>
	<path fill-rule="evenodd" clip-rule="evenodd" fill="#DD5FAA" d="M639.357,69.164c0.355-0.607,0.858-0.762,1.421-0.71
		c0.079,0.007,0.158,0.014,0.237,0.022c0.67,0.065,1.234,0.967,1.329,1.801c0.06,0.534-0.041,1.076-0.28,1.493
		c-0.215,0.373-0.62,0.749-1,0.74c-0.088-0.002-0.175-0.006-0.263-0.007c-0.425-0.008-0.783-0.084-1.137-0.46
		c-0.324-0.344-0.541-0.846-0.598-1.382C639.009,70.12,639.114,69.58,639.357,69.164z"/>
	<path fill-rule="evenodd" clip-rule="evenodd" fill="#DD5FAA" d="M632.072,71.764c0.41-0.163,0.808-0.285,1.292-0.249
		c1.211,0.09,2.228,1.04,2.302,2.102c0.071,1.029-0.996,1.846-2.241,1.803c-1.164-0.044-2.499-0.954-2.406-1.974
		C631.08,72.769,631.269,72.084,632.072,71.764z"/>
	<path fill-rule="evenodd" clip-rule="evenodd" fill="#DD5FAA" d="M702.637,65.301c0.408-0.165,0.807-0.287,1.292-0.249
		c1.21,0.088,2.228,1.04,2.302,2.1c0.07,1.029-0.998,1.846-2.242,1.803c-1.164-0.044-2.498-0.954-2.406-1.972
		C701.644,66.307,701.834,65.622,702.637,65.301z"/>
	<path fill-rule="evenodd" clip-rule="evenodd" fill="#DD5FAA" d="M634.049,59.727c2.056,0.135,2.411,2.752,0.334,2.615
		C632.328,62.207,631.974,59.591,634.049,59.727z"/>
	<path fill-rule="evenodd" clip-rule="evenodd" fill="#DD5FAA" d="M698.419,62.084c0.142-0.513,0.676-0.827,1.1-0.833
		c0.569-0.01,1.177,0.467,1.34,1.159c0.088,0.371,0.103,0.676,0.045,1.047c-0.108,0.693-0.61,1.202-1.199,1.214
		c-0.76,0.015-1.297-0.699-1.408-1.56C698.249,62.744,698.325,62.427,698.419,62.084z"/>
	<path fill-rule="evenodd" clip-rule="evenodd" fill="#DD5FAA" d="M713.58,69.527c2.055,0.135,2.409,2.75,0.333,2.613
		C711.858,72.005,711.502,69.39,713.58,69.527z"/>
	<path fill-rule="evenodd" clip-rule="evenodd" fill="#DD5FAA" d="M703.981,54c0.483-1.266,3.055-0.713,2.568,0.563
		C706.067,55.827,703.494,55.275,703.981,54z"/>
	<path fill-rule="evenodd" clip-rule="evenodd" fill="#DD5FAA" d="M642.313,54.598c0.484-1.262,3.055-0.711,2.568,0.563
		C644.399,56.425,641.825,55.874,642.313,54.598z"/>
	<path fill-rule="evenodd" clip-rule="evenodd" fill="#DD5FAA" d="M701.242,74.569c1.729,0.114,1.531,3.555-0.193,3.441
		C699.319,77.896,699.519,74.455,701.242,74.569z"/>
	<path fill="#89115E" d="M669.68,92.956c-8.451-1.185-5.849-19.325,2.6-18.137C680.73,76.007,678.13,94.144,669.68,92.956z"/>
</g>
<g>
	<path fill-rule="evenodd" clip-rule="evenodd" fill="#F27ABB" d="M380.828,6.259c-11.306-0.516-64.785-1.924-71.098,42.514
		c-2.144,15.095-7.464,33.362-2.986,50.723c0.529,2.05,2.688,5.808,2.688,5.808s6.183,12.633,65.329,14.089
		s69.411-11.469,69.411-11.469s2.252-3.799,2.85-5.911c3.585-12.653,1.298-25.626,0.59-36.25
		C444.204,14.653,393.006,6.814,380.828,6.259z"/>
	<path fill-rule="evenodd" clip-rule="evenodd" fill="#FFFFFF" d="M378.906,17.283c14.714,1.767,26.212,13.828,25.307,25.566
		c-0.933,12.107-13.943,19.979-28.648,18.213c-14.713-1.767-26.211-13.828-25.306-25.566
		C351.191,23.389,364.202,15.517,378.906,17.283z"/>
	<path fill-rule="evenodd" clip-rule="evenodd" fill="#333333" d="M381.34,25.518c15.209,2.511,11.807,27.408-3.462,24.887
		C362.67,47.894,366.072,22.998,381.34,25.518z"/>
	<path fill-rule="evenodd" clip-rule="evenodd" fill="#DD5FAA" d="M329.914,55.905c0.55-0.671,1.288-0.802,2.101-0.688
		c0.114,0.016,0.228,0.032,0.342,0.048c0.967,0.14,1.731,1.243,1.82,2.223c0.056,0.627-0.122,1.248-0.494,1.709
		c-0.334,0.413-0.942,0.81-1.493,0.763c-0.128-0.011-0.254-0.023-0.381-0.034c-0.615-0.05-1.13-0.174-1.62-0.645
		c-0.449-0.431-0.734-1.035-0.785-1.664C329.354,56.983,329.538,56.365,329.914,55.905z"/>
	<path fill-rule="evenodd" clip-rule="evenodd" fill="#DD5FAA" d="M319.207,58.221c0.603-0.149,1.188-0.253,1.886-0.165
		c1.749,0.222,3.167,1.425,3.211,2.667c0.043,1.203-1.551,2.05-3.353,1.878c-1.684-0.164-3.564-1.351-3.37-2.528
		C317.71,59.294,318.024,58.516,319.207,58.221z"/>
	<path fill-rule="evenodd" clip-rule="evenodd" fill="#DD5FAA" d="M421.823,57.547c0.601-0.152,1.186-0.256,1.887-0.165
		c1.748,0.219,3.166,1.425,3.212,2.664c0.041,1.203-1.555,2.049-3.354,1.878c-1.684-0.164-3.563-1.351-3.371-2.526
		C420.326,58.62,420.641,57.842,421.823,57.547z"/>
	<path fill-rule="evenodd" clip-rule="evenodd" fill="#DD5FAA" d="M322.779,44.42c2.971,0.357,3.332,3.433,0.33,3.072
		C320.14,47.135,319.78,44.06,322.779,44.42z"/>
	<path fill-rule="evenodd" clip-rule="evenodd" fill="#DD5FAA" d="M415.901,53.398c0.235-0.583,1.028-0.895,1.642-0.862
		c0.825,0.044,1.678,0.657,1.873,1.478c0.105,0.44,0.109,0.796,0.004,1.222c-0.197,0.795-0.954,1.339-1.808,1.296
		c-1.102-0.056-1.837-0.939-1.948-1.95C415.616,54.149,415.745,53.787,415.901,53.398z"/>
	<path fill-rule="evenodd" clip-rule="evenodd" fill="#DD5FAA" d="M437.429,63.521c2.969,0.357,3.329,3.43,0.329,3.07
		C434.789,66.234,434.427,63.161,437.429,63.521z"/>
	<path fill-rule="evenodd" clip-rule="evenodd" fill="#DD5FAA" d="M424.435,44.539c0.773-1.425,4.468-0.532,3.687,0.903
		C427.35,46.865,423.654,45.975,424.435,44.539z"/>
	<path fill-rule="evenodd" clip-rule="evenodd" fill="#DD5FAA" d="M335.053,39.258c0.775-1.42,4.468-0.53,3.687,0.903
		C337.967,41.583,334.271,40.693,335.053,39.258z"/>
	<path fill-rule="evenodd" clip-rule="evenodd" fill="#DD5FAA" d="M419.258,68.186c2.499,0.3,2.009,4.281-0.482,3.982
		C416.276,71.868,416.768,67.887,419.258,68.186z"/>
	<path fill="#89115E" d="M343.302,85.146c0.874-8.408,15.6-14.086,32.894-12.684c17.295,1.4,30.608,9.348,29.729,17.754
		c-0.872,8.406-14.291,1.506-31.585,0.105C357.045,88.92,342.426,93.55,343.302,85.146z"/>
	<path fill="#FFFFFF" d="M396.215,76.432c-3.185-0.333-6.344-1.134-9.509-1.886c-0.401-0.02-0.8-0.038-1.193-0.049
		c-0.385,1.517,0.186,3.271,1.699,4.601c0.994,0.875,2.485,1.336,3.85,1.424c2.004,0.13,3.688-0.634,4.724-1.723
		c0.616-0.643,0.792-1.442,0.672-2.27C396.377,76.492,396.29,76.461,396.215,76.432z"/>
	<path fill="#FFFFFF" d="M358.399,73.202c-1.793,0.241-3.574,0.586-5.299,1.115c0.096,0.705,0.365,1.384,0.741,1.975
		c1.004,1.579,3.183,2.25,5.622,1.854c2.789-0.452,4.639-2.649,5.056-4.552c0.057-0.259,0.066-0.518,0.04-0.782
		C362.6,72.99,360.492,73.037,358.399,73.202z"/>
</g>
<g>
	<path fill-rule="evenodd" clip-rule="evenodd" fill="#F27ABB" d="M824.364,4.123c-31.951,0-82.315,11.572-68.355,60.335
		c11.262,39.336,41.206,43.833,41.206,43.833s-4.803,1.696-1.346,3.992c3.647,2.423,9.934,2.379,11.995,1.862
		c0.43-0.108-1.497,2.449,0.207,2.272c1.704-0.178,2.774-2.671,5.084-2.756c2.705-0.099,9.862-0.499,12.405-0.23
		c13.015,1.378,19.492-2.191,19.492-2.191s2.156,10.299,3.894,9.081c5.897-4.134-0.87-12.341-0.87-12.341
		s36.787-16.017,47.001-41.748C911.277,25.421,856.316,4.123,824.364,4.123z"/>
	<path fill-rule="evenodd" clip-rule="evenodd" fill="#FFFFFF" d="M822.31,35.12c10.11,0.697,17.606,9.492,16.537,18.602
		c-1.103,9.395-10.399,16.067-20.503,15.371c-10.109-0.697-17.606-9.492-16.536-18.602C802.91,41.096,812.207,34.424,822.31,35.12z"
		/>
	<path fill-rule="evenodd" clip-rule="evenodd" fill="#333333" d="M821.091,53.959c10.042,0.717,10.498,14.989,0.416,14.269
		C811.465,67.511,811.009,53.239,821.091,53.959z"/>
	<path fill-rule="evenodd" clip-rule="evenodd" fill="#DD5FAA" d="M788.357,69.164c0.355-0.607,0.858-0.762,1.421-0.71
		c0.079,0.007,0.158,0.014,0.237,0.022c0.67,0.065,1.234,0.967,1.329,1.801c0.06,0.534-0.041,1.076-0.28,1.493
		c-0.215,0.373-0.62,0.749-1,0.74c-0.088-0.002-0.175-0.006-0.263-0.007c-0.425-0.008-0.783-0.084-1.137-0.46
		c-0.324-0.344-0.541-0.846-0.598-1.382C788.009,70.12,788.114,69.58,788.357,69.164z"/>
	<path fill-rule="evenodd" clip-rule="evenodd" fill="#DD5FAA" d="M781.072,71.764c0.41-0.163,0.808-0.285,1.292-0.249
		c1.211,0.09,2.228,1.04,2.302,2.102c0.071,1.029-0.996,1.846-2.241,1.803c-1.164-0.044-2.499-0.954-2.406-1.974
		C780.08,72.769,780.269,72.084,781.072,71.764z"/>
	<path fill-rule="evenodd" clip-rule="evenodd" fill="#DD5FAA" d="M851.637,65.301c0.408-0.165,0.807-0.287,1.292-0.249
		c1.21,0.088,2.228,1.04,2.302,2.1c0.07,1.029-0.998,1.846-2.242,1.803c-1.164-0.044-2.498-0.954-2.406-1.972
		C850.644,66.307,850.834,65.622,851.637,65.301z"/>
	<path fill-rule="evenodd" clip-rule="evenodd" fill="#DD5FAA" d="M783.049,59.727c2.056,0.135,2.411,2.752,0.334,2.615
		C781.328,62.207,780.974,59.591,783.049,59.727z"/>
	<path fill-rule="evenodd" clip-rule="evenodd" fill="#DD5FAA" d="M847.419,62.084c0.142-0.513,0.676-0.827,1.1-0.833
		c0.569-0.01,1.177,0.467,1.34,1.159c0.088,0.371,0.103,0.676,0.045,1.047c-0.108,0.693-0.61,1.202-1.199,1.214
		c-0.76,0.015-1.297-0.699-1.408-1.56C847.249,62.744,847.325,62.427,847.419,62.084z"/>
	<path fill-rule="evenodd" clip-rule="evenodd" fill="#DD5FAA" d="M862.58,69.527c2.055,0.135,2.409,2.75,0.333,2.613
		C860.858,72.005,860.502,69.39,862.58,69.527z"/>
	<path fill-rule="evenodd" clip-rule="evenodd" fill="#DD5FAA" d="M852.981,54c0.483-1.266,3.055-0.713,2.568,0.563
		C855.067,55.827,852.494,55.275,852.981,54z"/>
	<path fill-rule="evenodd" clip-rule="evenodd" fill="#DD5FAA" d="M791.313,54.598c0.484-1.262,3.055-0.711,2.568,0.563
		C793.399,56.425,790.825,55.874,791.313,54.598z"/>
	<path fill-rule="evenodd" clip-rule="evenodd" fill="#DD5FAA" d="M850.242,74.569c1.729,0.114,1.531,3.555-0.193,3.441
		C848.319,77.896,848.519,74.455,850.242,74.569z"/>
	<path fill="#89115E" d="M842.723,85.784c0.027-6.133-8.982-11.384-20.124-11.732c-11.142-0.35-20.197,4.337-20.221,10.468
		c-0.028,6.131,9.022,2.209,20.163,2.557C833.684,87.425,842.698,91.913,842.723,85.784z"/>
	<path fill="#FFFFFF" d="M808.71,75.975c2.07-0.044,4.129-0.426,6.192-0.772c0.26,0.01,0.519,0.022,0.774,0.038
		c0.226,1.112-0.172,2.336-1.173,3.198c-0.658,0.567-1.631,0.807-2.517,0.786c-1.301-0.029-2.38-0.681-3.035-1.526
		c-0.389-0.499-0.491-1.083-0.4-1.67C808.604,76.008,808.661,75.991,808.71,75.975z"/>
	<path fill="#FFFFFF" d="M835.288,76.97c1.121,0.31,2.221,0.693,3.264,1.204c-0.145,0.495-0.398,0.958-0.709,1.351
		c-0.83,1.048-2.306,1.358-3.822,0.888c-1.734-0.537-2.659-2.246-2.701-3.635c-0.006-0.189,0.019-0.374,0.067-0.56
		C832.622,76.494,833.967,76.69,835.288,76.97z"/>
</g>
<g id="XMLID_1_">
	<path fill-rule="evenodd" clip-rule="evenodd" fill="#F27ABB" d="M967.509,12.689c-10.247,0.132-58.658,1.685-61.97,41.946
		c-1.125,13.676-7.828,30.37-2.847,45.733c0.588,1.815,2.742,5.077,2.742,5.077s5.693,11.025,59.23,9.218
		c53.537-1.807,61.542-13.962,61.542-13.962s1.831-3.532,2.258-5.461c2.559-11.558,3.825-23.094,2.612-32.602
		C1025.243,16.893,978.546,12.547,967.509,12.689z"/>
	<path fill-rule="evenodd" clip-rule="evenodd" fill="#FFFFFF" d="M966.365,22.696c13.394,0.813,24.436,11.044,24.251,21.639
		c-0.191,10.928-11.526,18.686-24.912,17.874c-13.393-0.812-24.435-11.044-24.25-21.639
		C941.645,29.643,952.98,21.884,966.365,22.696z"/>
	<path fill-rule="evenodd" clip-rule="evenodd" fill="#333333" d="M978.846,31.64c14.844,0.901,15.305,22.186,0.402,21.281
		C964.405,52.021,963.944,30.736,978.846,31.64z"/>
	<path fill="#89115E" d="M997.263,74.292c-0.257,0.808-14.482,0.324-31.775-1.081c-17.295-1.405-31.107-3.199-30.846-4.006
		c0.255-0.808,14.097,0.885,31.39,2.29C983.326,72.9,997.522,73.484,997.263,74.292z"/>
	<path fill="#FFFFFF" d="M986.793,74.292c-3.185,0.337-6.441,0.209-9.693,0.132c-0.396,0.064-0.791,0.129-1.178,0.2
		c-0.061,1.564,0.862,3.16,2.618,4.147c1.154,0.649,2.708,0.79,4.062,0.592c1.988-0.29,3.475-1.387,4.263-2.668
		c0.469-0.758,0.474-1.575,0.185-2.36C986.964,74.317,986.873,74.305,986.793,74.292z"/>
	<path fill="#FFFFFF" d="M947.091,71.05c-1.785-0.294-3.589-0.485-5.393-0.483c-0.115,0.702-0.056,1.43,0.131,2.106
		c0.499,1.803,2.386,3.082,4.834,3.416c2.8,0.383,5.21-1.177,6.166-2.875c0.131-0.231,0.215-0.476,0.267-0.736
		C951.17,72.075,949.141,71.504,947.091,71.05z"/>
	<path fill-rule="evenodd" clip-rule="evenodd" fill="#DD5FAA" d="M924.166,59.98c0.461-0.632,1.121-0.789,1.862-0.729
		c0.104,0.009,0.208,0.017,0.312,0.025c0.882,0.075,1.632,1.026,1.765,1.901c0.084,0.56-0.044,1.127-0.354,1.561
		c-0.279,0.389-0.807,0.778-1.308,0.764c-0.116-0.003-0.231-0.008-0.346-0.01c-0.559-0.012-1.03-0.097-1.499-0.495
		c-0.429-0.364-0.719-0.892-0.799-1.454C923.718,60.978,923.851,60.414,924.166,59.98z"/>
	<path fill-rule="evenodd" clip-rule="evenodd" fill="#DD5FAA" d="M914.614,62.625c0.537-0.166,1.06-0.29,1.696-0.247
		c1.593,0.107,2.939,1.114,3.046,2.227c0.104,1.079-1.292,1.923-2.929,1.864c-1.531-0.059-3.294-1.027-3.182-2.094
		C913.318,63.668,913.56,62.953,914.614,62.625z"/>
	<path fill-rule="evenodd" clip-rule="evenodd" fill="#DD5FAA" d="M1007.325,56.614c0.535-0.168,1.059-0.292,1.697-0.247
		c1.592,0.105,2.939,1.114,3.047,2.225c0.102,1.079-1.295,1.923-2.93,1.864c-1.531-0.059-3.293-1.026-3.182-2.092
		C1006.029,57.657,1006.272,56.941,1007.325,56.614z"/>
	<path fill-rule="evenodd" clip-rule="evenodd" fill="#DD5FAA" d="M917.098,50.036c2.704,0.164,3.196,2.909,0.464,2.743
		C914.859,52.615,914.368,49.871,917.098,50.036z"/>
	<path fill-rule="evenodd" clip-rule="evenodd" fill="#DD5FAA" d="M1001.749,53.198c0.181-0.536,0.881-0.859,1.438-0.861
		c0.748-0.004,1.552,0.502,1.773,1.229c0.119,0.39,0.142,0.709,0.07,1.098c-0.135,0.724-0.79,1.253-1.565,1.259
		c-0.999,0.008-1.711-0.747-1.866-1.649C1001.532,53.887,1001.629,53.556,1001.749,53.198z"/>
	<path fill-rule="evenodd" clip-rule="evenodd" fill="#DD5FAA" d="M1021.752,61.159c2.703,0.164,3.194,2.907,0.463,2.741
		C1019.511,63.736,1019.019,60.994,1021.752,61.159z"/>
	<path fill-rule="evenodd" clip-rule="evenodd" fill="#DD5FAA" d="M1008.984,44.788c0.622-1.321,4.01-0.714,3.381,0.617
		C1011.744,46.724,1008.356,46.119,1008.984,44.788z"/>
	<path fill-rule="evenodd" clip-rule="evenodd" fill="#DD5FAA" d="M927.913,44.751c0.624-1.316,4.01-0.712,3.381,0.617
		C930.673,46.688,927.285,46.083,927.913,44.751z"/>
	<path fill-rule="evenodd" clip-rule="evenodd" fill="#DD5FAA" d="M1005.58,66.308c2.275,0.138,2.046,3.741-0.221,3.603
		C1003.083,69.773,1003.313,66.171,1005.58,66.308z"/>
	<path fill="#B2508F" d="M943.414,53.614c-0.969,3.538,5.361,6.242,10.655,7.861c4.247,0.899,8.859,1.556,13.523,1.83
		c2.332,0.138,4.678,0.18,6.985,0.107c8.307-0.35,19.048-1.996,20.271-6.882c2.426-9.23-18.056-3.772-28.728-4.367
		c-2.938-0.028-5.875-0.144-8.877-0.317c-3.001-0.174-6.067-0.405-9.266-0.673C945.857,50.633,942.615,51.723,943.414,53.614
		L943.414,53.614z"/>
	<path fill="#C65C9B" d="M993.191,48.563c-8.575,1.414-17.203,2.519-26.223,2.611c-5.09,0.051-10.152-0.196-15.172-0.542
		c-3.492-0.239-6.958-0.666-10.475-0.288c-3.485,0.376-5.56,2.623-2.345,3.859c6.975,2.683,19.087,2.639,27.634,2.748
		c10.35,0.133,20.592-0.222,30.659-1.602C1006.132,54.134,1001.963,47.118,993.191,48.563z"/>
</g>
<g>
	<path fill-rule="evenodd" clip-rule="evenodd" fill="#F27ABB" d="M1122.365,4.123c-31.951,0-82.315,11.572-68.355,60.335
		c11.262,39.336,41.207,43.833,41.207,43.833s-4.803,1.696-1.346,3.992c3.647,2.423,9.934,2.379,11.995,1.862
		c0.43-0.108-1.497,2.449,0.207,2.272c1.704-0.178,2.774-2.671,5.084-2.756c2.705-0.099,9.862-0.499,12.405-0.23
		c13.015,1.378,19.492-2.191,19.492-2.191s2.156,10.299,3.894,9.081c5.897-4.134-0.87-12.341-0.87-12.341
		s36.787-16.017,47.001-41.748C1209.277,25.421,1154.316,4.123,1122.365,4.123z"/>
	<path fill-rule="evenodd" clip-rule="evenodd" fill="#FFFFFF" d="M1120.31,35.12c10.11,0.697,17.606,9.492,16.537,18.602
		c-1.103,9.395-10.399,16.067-20.503,15.371c-10.109-0.697-17.606-9.492-16.536-18.602
		C1100.91,41.096,1110.207,34.424,1120.31,35.12z"/>
	<path fill-rule="evenodd" clip-rule="evenodd" fill="#333333" d="M1119.091,53.959c10.042,0.717,10.498,14.989,0.416,14.269
		C1109.465,67.511,1109.009,53.239,1119.091,53.959z"/>
	<path fill-rule="evenodd" clip-rule="evenodd" fill="#DD5FAA" d="M1086.357,69.164c0.355-0.607,0.858-0.762,1.421-0.71
		c0.079,0.007,0.158,0.014,0.237,0.022c0.67,0.065,1.234,0.967,1.329,1.801c0.06,0.534-0.041,1.076-0.28,1.493
		c-0.215,0.373-0.62,0.749-1,0.74c-0.088-0.002-0.175-0.006-0.263-0.007c-0.425-0.008-0.783-0.084-1.137-0.46
		c-0.324-0.344-0.541-0.846-0.598-1.382C1086.009,70.12,1086.114,69.58,1086.357,69.164z"/>
	<path fill-rule="evenodd" clip-rule="evenodd" fill="#DD5FAA" d="M1079.072,71.764c0.41-0.163,0.808-0.285,1.292-0.249
		c1.211,0.09,2.228,1.04,2.302,2.102c0.071,1.029-0.996,1.846-2.241,1.803c-1.164-0.044-2.499-0.954-2.406-1.974
		C1078.08,72.769,1078.269,72.084,1079.072,71.764z"/>
	<path fill-rule="evenodd" clip-rule="evenodd" fill="#DD5FAA" d="M1149.637,65.301c0.408-0.165,0.807-0.287,1.292-0.249
		c1.21,0.088,2.228,1.04,2.302,2.1c0.07,1.029-0.998,1.846-2.242,1.803c-1.164-0.044-2.498-0.954-2.406-1.972
		C1148.644,66.307,1148.834,65.622,1149.637,65.301z"/>
	<path fill-rule="evenodd" clip-rule="evenodd" fill="#DD5FAA" d="M1081.049,59.727c2.056,0.135,2.411,2.752,0.334,2.615
		C1079.328,62.207,1078.974,59.591,1081.049,59.727z"/>
	<path fill-rule="evenodd" clip-rule="evenodd" fill="#DD5FAA" d="M1145.419,62.084c0.142-0.513,0.676-0.827,1.1-0.833
		c0.569-0.01,1.177,0.467,1.34,1.159c0.088,0.371,0.103,0.676,0.046,1.047c-0.108,0.693-0.61,1.202-1.199,1.214
		c-0.76,0.015-1.297-0.699-1.408-1.56C1145.249,62.744,1145.325,62.427,1145.419,62.084z"/>
	<path fill-rule="evenodd" clip-rule="evenodd" fill="#DD5FAA" d="M1160.58,69.527c2.055,0.135,2.409,2.75,0.333,2.613
		C1158.858,72.005,1158.502,69.39,1160.58,69.527z"/>
	<path fill-rule="evenodd" clip-rule="evenodd" fill="#DD5FAA" d="M1150.981,54c0.483-1.266,3.055-0.713,2.568,0.563
		C1153.067,55.827,1150.494,55.275,1150.981,54z"/>
	<path fill-rule="evenodd" clip-rule="evenodd" fill="#DD5FAA" d="M1089.313,54.598c0.484-1.262,3.055-0.711,2.568,0.563
		C1091.399,56.425,1088.825,55.874,1089.313,54.598z"/>
	<path fill-rule="evenodd" clip-rule="evenodd" fill="#DD5FAA" d="M1148.242,74.569c1.729,0.114,1.531,3.555-0.193,3.441
		C1146.319,77.896,1146.519,74.455,1148.242,74.569z"/>
	<path fill="#89115E" d="M1100.457,77.384c0.118,0.855,9.245,1.801,20.388,2.113c11.143,0.312,20.081-0.128,19.96-0.983
		c-0.117-0.855-9.068-0.521-20.21-0.833C1109.452,77.368,1100.337,76.529,1100.457,77.384z"/>
	<path fill="#FFFFFF" d="M1107.138,78.057c2.01,0.493,4.099,0.657,6.181,0.857c0.249,0.077,0.496,0.155,0.738,0.237
		c-0.07,1.133-0.771,2.212-1.961,2.785c-0.782,0.377-1.785,0.357-2.635,0.108c-1.249-0.365-2.123-1.273-2.537-2.259
		c-0.247-0.583-0.193-1.173,0.046-1.716C1107.027,78.061,1107.086,78.06,1107.138,78.057z"/>
	<path fill="#FFFFFF" d="M1132.718,78.838c1.161-0.072,2.326-0.068,3.478,0.075c0.024,0.515-0.064,1.036-0.23,1.508
		c-0.444,1.261-1.738,2.035-3.325,2.084c-1.814,0.057-3.245-1.258-3.738-2.558c-0.067-0.177-0.104-0.36-0.119-0.552
		C1130.042,79.257,1131.377,79.004,1132.718,78.838z"/>
</g>
</svg>
