<?xml version="1.0" encoding="utf-8"?>
<!-- Generator: Adobe Illustrator 23.0.6, SVG Export Plug-In . SVG Version: 6.00 Build 0)  -->
<svg version="1.1" id="Planets" xmlns="http://www.w3.org/2000/svg" xmlns:xlink="http://www.w3.org/1999/xlink" x="0px" y="0px"
	 width="546px" height="85px" viewBox="0 0 546 85" enable-background="new 0 0 546 85" xml:space="preserve">
<g>
	<path fill="#976ABA" d="M107.948,38.971c0.465-15.207-8.37-28.498-22.526-33.839c-12.86-4.856-28.891-1.318-39.709,6.666
		c-2.45,1.807-4.61,3.804-6.512,5.997c-8.613,7.44-14.407,17.907-13.91,29.317c0.709,16.074,15.424,30.612,30.262,34.958
		C81.376,89.637,107.195,63.754,107.948,38.971z"/>
	<path fill="#7863CE" d="M45.933,38.22c6.077-2.751,12.168-5.473,18.305-8.087c11.708-4.986,23.448-10.099,35.072-15.484
		c-2.493-2.818-5.466-5.246-8.854-7.164C75.448,17.469,60.757,27.949,45.933,38.22z"/>
	<path fill="#7863CE" d="M27.463,56.93c0.991,2.496,2.281,4.906,3.819,7.182c2.291-1.26,4.585-2.514,6.87-3.776
		c12.423-7.991,24.657-16.291,36.896-24.601c-2.009,0.868-4.019,1.727-6.026,2.581C55.054,44.264,41.325,50.749,27.463,56.93z"/>
	<path fill="#F5C06E" d="M87.417,65.476c-9.884,5.732-19.767,11.488-29.711,17.145c19.52,4.337,38.636-9.913,46.506-27.805
		C98.765,58.55,93.197,62.124,87.417,65.476z"/>
	<path fill="#7863CE" d="M79.757,3.564c-11.656-2.183-24.766,1.385-34.044,8.234c-2.45,1.807-4.61,3.804-6.512,5.997
		c-7.027,6.071-12.174,14.156-13.56,23.12C43.851,28.746,61.623,15.87,79.757,3.564z"/>
	<path fill="#7863CE" d="M73.194,65.822c-10.444,0.28-17.606-0.509-27.65-3.599c-6.539-2.013-12.538-5.669-18.312-9.229
		c-0.414-0.256-0.826-0.522-1.233-0.792c3.16,13.973,16.299,25.98,29.554,29.868c20.535,6.018,41.065-9.122,48.99-28.038
		C95.936,60.853,83.738,65.539,73.194,65.822z"/>
	<path fill="#B2A8EF" d="M135.148,22.097c0.27-2.151,0.067-4.194-0.501-6.082c-1.375-7.739-6.295-10.913-12.624-11.581
		c-0.927-0.263-1.874-0.466-2.835-0.591c-8.549-1.123-17.8,1.654-25.91,5.576c1.386,1.039,2.819,2.175,4.199,3.408
		c5.386-2.558,12.263-3.418,17.273-3.094c5.388,0.352,13.351,4.067,11.134,10.8c-1.305,3.966-15.999,14.604-19.74,16.474
		c-7.386,3.697-15.284,6.139-23.12,8.668c-9.497,3.064-18.977,6.236-28.654,8.697c-7.334,1.861-14.765,3.328-22.294,4.156
		c-16.388,1.606-20.355-1.938-20.356-1.941c-1.861-2.494-1.921-5.463-0.359-7.789c5.857-8.354,13.365-11.236,15.383-12.554
		c0.432-1.829,0.766-2.447,1.255-3.618c-2.971,1.4-13.458,3.694-22.659,14.929c-5.347,7.55-3.003,16.134,5.351,19.816
		c7.495,3.302,17.117,1.756,24.93,0.512c22.836-3.648,45.933-9.713,67.305-18.629c3.762-1.568,7.531-3.273,11.174-5.195
		c7.915-3.571,15.973-8.869,19.31-16.438C134.284,25.9,134.903,24.06,135.148,22.097z"/>
</g>
<g>
	<path fill="#AA1539" d="M242.948,38.971c0.465-15.207-8.37-28.498-22.526-33.839c-12.86-4.856-28.891-1.318-39.709,6.666
		c-2.45,1.807-4.61,3.804-6.512,5.997c-8.613,7.44-14.407,17.907-13.91,29.317c0.709,16.074,15.424,30.612,30.262,34.958
		C216.376,89.637,242.195,63.754,242.948,38.971z"/>
	<path fill="#F4C260" d="M180.933,38.22c6.077-2.751,12.168-5.473,18.305-8.087c11.708-4.986,23.448-10.099,35.072-15.484
		c-2.493-2.818-5.466-5.246-8.854-7.164C210.448,17.469,195.757,27.949,180.933,38.22z"/>
	<path fill="#F4C260" d="M162.463,56.93c0.991,2.496,2.281,4.906,3.819,7.182c2.291-1.26,4.585-2.514,6.87-3.776
		c12.423-7.991,24.657-16.291,36.896-24.601c-2.009,0.868-4.019,1.727-6.026,2.581C190.054,44.264,176.325,50.749,162.463,56.93z"/>
	<path fill="#F4C260" d="M222.417,65.476c-9.884,5.732-19.767,11.488-29.711,17.145c19.52,4.337,38.636-9.913,46.506-27.805
		C233.765,58.55,228.197,62.124,222.417,65.476z"/>
	<path fill="#F4C260" d="M214.757,3.564c-11.656-2.183-24.766,1.385-34.044,8.234c-2.45,1.807-4.61,3.804-6.512,5.997
		c-7.027,6.071-12.174,14.156-13.56,23.12C178.851,28.746,196.623,15.87,214.757,3.564z"/>
	<path fill="#F4C260" d="M208.194,65.822c-10.444,0.28-17.606-0.509-27.65-3.599c-6.539-2.013-12.538-5.669-18.312-9.229
		c-0.414-0.256-0.826-0.522-1.233-0.792c3.16,13.973,16.299,25.98,29.554,29.868c20.535,6.018,41.065-9.122,48.99-28.038
		C230.936,60.853,218.738,65.539,208.194,65.822z"/>
	<path fill="#DB6A31" d="M270.148,22.097c0.27-2.151,0.067-4.194-0.501-6.082c-1.375-7.739-6.295-10.913-12.624-11.581
		c-0.927-0.263-1.874-0.466-2.835-0.591c-8.549-1.123-17.8,1.654-25.91,5.576c1.386,1.039,2.819,2.175,4.199,3.408
		c5.386-2.558,12.263-3.418,17.273-3.094c5.388,0.352,13.351,4.067,11.134,10.8c-1.305,3.966-15.999,14.604-19.74,16.474
		c-7.386,3.697-15.284,6.139-23.12,8.668c-9.497,3.064-18.977,6.236-28.654,8.697c-7.334,1.861-14.765,3.328-22.294,4.156
		c-16.388,1.606-20.355-1.938-20.356-1.941c-1.861-2.494-1.921-5.463-0.359-7.789c5.857-8.354,13.365-11.236,15.383-12.554
		c0.432-1.829,0.766-2.447,1.255-3.618c-2.971,1.4-13.458,3.694-22.659,14.929c-5.347,7.55-3.003,16.134,5.351,19.816
		c7.495,3.302,17.117,1.756,24.93,0.512c22.836-3.648,45.933-9.713,67.305-18.629c3.762-1.568,7.531-3.273,11.174-5.195
		c7.915-3.571,15.973-8.869,19.31-16.438C269.284,25.9,269.903,24.06,270.148,22.097z"/>
</g>
<g>
	<path fill="#F9F93D" d="M377.948,38.971c0.465-15.207-8.37-28.498-22.526-33.839c-12.86-4.856-28.891-1.318-39.709,6.666
		c-2.45,1.807-4.61,3.804-6.512,5.997c-8.613,7.44-14.407,17.907-13.91,29.317c0.709,16.074,15.424,30.612,30.262,34.958
		C351.376,89.637,377.195,63.754,377.948,38.971z"/>
	<path fill="#52F43B" d="M315.933,38.22c6.077-2.751,12.168-5.473,18.305-8.087c11.708-4.986,23.448-10.099,35.072-15.484
		c-2.493-2.818-5.466-5.246-8.854-7.164C345.448,17.469,330.757,27.949,315.933,38.22z"/>
	<path fill="#52F43B" d="M297.463,56.93c0.991,2.496,2.281,4.906,3.819,7.182c2.291-1.26,4.585-2.514,6.87-3.776
		c12.423-7.991,24.657-16.291,36.896-24.601c-2.009,0.868-4.019,1.727-6.026,2.581C325.054,44.264,311.325,50.749,297.463,56.93z"/>
	<path fill="#52F43B" d="M357.417,65.476c-9.884,5.732-19.767,11.488-29.711,17.145c19.52,4.337,38.636-9.913,46.506-27.805
		C368.765,58.55,363.197,62.124,357.417,65.476z"/>
	<path fill="#52F43B" d="M349.757,3.564c-11.656-2.183-24.766,1.385-34.044,8.234c-2.45,1.807-4.61,3.804-6.512,5.997
		c-7.027,6.071-12.174,14.156-13.56,23.12C313.851,28.746,331.623,15.87,349.757,3.564z"/>
	<path fill="#52F43B" d="M343.194,65.822c-10.444,0.28-17.606-0.509-27.65-3.599c-6.539-2.013-12.538-5.669-18.312-9.229
		c-0.414-0.256-0.826-0.522-1.233-0.792c3.16,13.973,16.299,25.98,29.554,29.868c20.535,6.018,41.065-9.122,48.99-28.038
		C365.936,60.853,353.738,65.539,343.194,65.822z"/>
	<path fill="#508C44" d="M405.148,22.097c0.27-2.151,0.067-4.194-0.501-6.082c-1.375-7.739-6.295-10.913-12.624-11.581
		c-0.927-0.263-1.874-0.466-2.835-0.591c-8.549-1.123-17.8,1.654-25.91,5.576c1.386,1.039,2.819,2.175,4.199,3.408
		c5.386-2.558,12.263-3.418,17.273-3.094c5.388,0.352,13.351,4.067,11.134,10.8c-1.305,3.966-15.999,14.604-19.74,16.474
		c-7.386,3.697-15.284,6.139-23.12,8.668c-9.497,3.064-18.977,6.236-28.654,8.697c-7.334,1.861-14.765,3.328-22.294,4.156
		c-16.388,1.606-20.355-1.938-20.356-1.941c-1.861-2.494-1.921-5.463-0.359-7.789c5.857-8.354,13.365-11.236,15.383-12.554
		c0.432-1.829,0.766-2.447,1.255-3.618c-2.971,1.4-13.458,3.694-22.659,14.929c-5.347,7.55-3.003,16.134,5.351,19.816
		c7.495,3.302,17.117,1.756,24.93,0.512c22.836-3.648,45.933-9.713,67.305-18.629c3.762-1.568,7.531-3.273,11.174-5.195
		c7.915-3.571,15.973-8.869,19.31-16.438C404.284,25.9,404.903,24.06,405.148,22.097z"/>
</g>
<g>
	<path fill="#F789B5" d="M513.242,37.878c0.465-15.207-8.37-28.498-22.526-33.839c-12.86-4.856-28.891-1.318-39.709,6.666
		c-2.45,1.807-4.61,3.804-6.512,5.997c-8.613,7.44-14.407,17.907-13.91,29.317c0.709,16.074,15.424,30.612,30.262,34.958
		C486.67,88.544,512.489,62.661,513.242,37.878z"/>
	<path fill="#FC063B" d="M451.227,37.127c6.077-2.751,12.168-5.473,18.305-8.087c11.708-4.986,23.448-10.099,35.072-15.484
		c-2.493-2.818-5.466-5.246-8.854-7.164C480.742,16.376,466.051,26.855,451.227,37.127z"/>
	<path fill="#FC063B" d="M432.757,55.837c0.991,2.496,2.281,4.906,3.819,7.182c2.291-1.26,4.585-2.514,6.87-3.776
		c12.423-7.991,24.657-16.291,36.896-24.601c-2.009,0.868-4.019,1.727-6.026,2.581C460.348,43.171,446.619,49.656,432.757,55.837z"
		/>
	<path fill="#FC063B" d="M492.711,64.382c-9.884,5.732-19.767,11.488-29.711,17.145c19.52,4.337,38.636-9.913,46.506-27.805
		C504.059,57.456,498.491,61.03,492.711,64.382z"/>
	<path fill="#FC063B" d="M485.051,2.471c-11.656-2.183-24.766,1.385-34.044,8.234c-2.45,1.807-4.61,3.804-6.512,5.997
		c-7.027,6.071-12.174,14.156-13.56,23.12C449.145,27.653,466.917,14.776,485.051,2.471z"/>
	<path fill="#FC063B" d="M478.488,64.729c-10.444,0.28-17.606-0.509-27.65-3.599c-6.539-2.013-12.538-5.669-18.312-9.229
		c-0.414-0.256-0.826-0.522-1.233-0.792c3.16,13.973,16.299,25.98,29.554,29.868c20.535,6.018,41.065-9.122,48.99-28.038
		C501.23,59.76,489.032,64.446,478.488,64.729z"/>
	<path fill="#C13662" d="M540.442,21.004c0.27-2.151,0.067-4.194-0.501-6.082c-1.375-7.739-6.294-10.913-12.624-11.581
		c-0.927-0.263-1.874-0.466-2.835-0.591c-8.549-1.123-17.8,1.654-25.91,5.576c1.386,1.039,2.819,2.175,4.199,3.408
		c5.386-2.558,12.263-3.418,17.273-3.094c5.388,0.352,13.351,4.067,11.134,10.8c-1.305,3.966-15.999,14.604-19.74,16.474
		c-7.386,3.697-15.284,6.139-23.12,8.668c-9.497,3.064-18.977,6.236-28.654,8.697c-7.334,1.861-14.765,3.328-22.294,4.156
		c-16.388,1.606-20.355-1.938-20.356-1.941c-1.861-2.494-1.921-5.463-0.359-7.789c5.857-8.354,13.365-11.236,15.383-12.554
		c0.432-1.829,0.766-2.447,1.255-3.618c-2.971,1.4-13.458,3.694-22.659,14.929c-5.347,7.55-3.003,16.134,5.351,19.816
		c7.495,3.302,17.117,1.756,24.93,0.512c22.836-3.648,45.933-9.713,67.305-18.629c3.762-1.568,7.531-3.273,11.174-5.195
		c7.915-3.571,15.973-8.869,19.31-16.438C539.578,24.806,540.197,22.967,540.442,21.004z"/>
</g>
</svg>
