<?xml version="1.0" encoding="utf-8"?>
<!-- Generator: Adobe Illustrator 23.0.6, SVG Export Plug-In . SVG Version: 6.00 Build 0)  -->
<svg version="1.1" id="Stars" xmlns="http://www.w3.org/2000/svg" xmlns:xlink="http://www.w3.org/1999/xlink" x="0px" y="0px"
	 width="365px" height="85px" viewBox="0 0 365 85" enable-background="new 0 0 365 85" xml:space="preserve">
<g>
	<path fill-rule="evenodd" clip-rule="evenodd" fill="#E8D62D" d="M354.816,46.435c-0.632,1.261-2.006,2.575-4.031,3.803
		c-5.152,3.153-14.471,5.781-26.098,5.693c-0.061,5.649-3.535,27.805-9.635,27.068c-8.933-1.081-16.706-21.383-17.551-22.304
		c-10.111,1.542-18.89,2.653-25.253-2.635c-3.064-3.202,2.413-12.773,15.714-23.186c-7.348-18.048-6.988-28.831-1.492-30.192
		c6.833-0.951,13.628,2.407,25.498,10.436C323.025,4.083,331.593,1.99,336.762,2.535c4.879,2.696,5.255,11.339-2.187,25.992
		C343.833,33.33,354.154,42.354,354.816,46.435L354.816,46.435z"/>
	<path fill-rule="evenodd" clip-rule="evenodd" fill="#F4E38C" d="M314.353,51.114l-0.224,0.172
		c-1.92,1.476-2.291,4.309-0.815,6.229c1.476,1.92,4.309,2.291,6.229,0.816l0.224-0.172c1.919-1.475,2.29-4.309,0.815-6.229
		C319.106,50.009,316.273,49.639,314.353,51.114z"/>
	<path fill-rule="evenodd" clip-rule="evenodd" fill="#F4E38C" d="M321.25,42.717c-3.189,2.451,0.611,7.396,3.8,4.945
		C328.239,45.212,324.439,40.267,321.25,42.717z"/>
	<path fill-rule="evenodd" clip-rule="evenodd" fill="#F4E38C" d="M306.072,18.627c-3.189,2.451,0.612,7.396,3.801,4.945
		C313.061,21.121,309.261,16.176,306.072,18.627z"/>
	<path fill-rule="evenodd" clip-rule="evenodd" fill="#F4E38C" d="M316.949,63.184c-1.885,1.448,0.361,4.37,2.246,2.922
		C321.08,64.658,318.834,61.736,316.949,63.184z"/>
	<path fill-rule="evenodd" clip-rule="evenodd" fill="#F4E38C" d="M331.008,17.577c-1.348,1.036-1.608,3.025-0.572,4.374l0.23,0.299
		c1.035,1.347,3.025,1.608,4.372,0.572c1.348-1.036,1.608-3.025,0.573-4.372l-0.23-0.299
		C334.346,16.802,332.356,16.542,331.008,17.577z"/>
	<path fill-rule="evenodd" clip-rule="evenodd" fill="#F4E38C" d="M340.947,39.02l-0.384,0.295
		c-1.348,1.036-1.608,3.025-0.573,4.373c1.036,1.348,3.025,1.608,4.373,0.572l0.384-0.295c1.348-1.036,1.608-3.025,0.572-4.373
		S342.295,37.984,340.947,39.02z"/>
	<path fill-rule="evenodd" clip-rule="evenodd" fill="#DAF7F1" d="M305.836,30.726l-0.3,0.231c-1.348,1.036-1.608,3.025-0.572,4.373
		c1.036,1.348,3.025,1.608,4.373,0.572l0.3-0.231c1.348-1.036,1.608-3.025,0.572-4.373C309.173,29.951,307.184,29.69,305.836,30.726
		z"/>
	<path fill-rule="evenodd" clip-rule="evenodd" fill="#DAF7F1" d="M288.489,14.978c-3.189,2.451,0.612,7.396,3.801,4.945
		C295.478,17.472,291.678,12.527,288.489,14.978z"/>
	<path fill-rule="evenodd" clip-rule="evenodd" fill="#DAF7F1" d="M288.532,42.549c-0.365-0.3-1.072-0.607-1.549-0.622
		c-0.881-0.03-1.06,0.034-1.922,0.269c-0.095,0.026-0.19,0.056-0.285,0.088c-1.607,0.552-2.328,2.556-1.714,4.065
		c0.315,0.773,0.94,1.4,1.713,1.714c0.333,0.135,0.666,0.192,0.999,0.206c0.887,0.209,1.857,0.044,2.607-0.553
		c0.704-0.56,1.282-1.334,1.368-2.261C289.856,44.288,289.439,43.292,288.532,42.549z"/>
	<path fill-rule="evenodd" clip-rule="evenodd" fill="#DAF7F1" d="M289.861,38.475l-0.299,0.23c-0.613,0.471-0.73,1.375-0.26,1.988
		c0.471,0.613,1.375,0.731,1.987,0.26l0.299-0.23c0.613-0.471,0.731-1.375,0.26-1.988C291.378,38.123,290.474,38.004,289.861,38.475
		z"/>
	<path fill-rule="evenodd" clip-rule="evenodd" fill="#DAF7F1" d="M305.485,42.676c-1.45,1.114,0.278,3.362,1.727,2.248
		C308.662,43.81,306.934,41.562,305.485,42.676z"/>
	<path fill-rule="evenodd" clip-rule="evenodd" fill="#DAF7F1" d="M312.084,25.209c-1.45,1.114,0.278,3.362,1.727,2.248
		C315.261,26.343,313.533,24.095,312.084,25.209z"/>
	<path fill-rule="evenodd" clip-rule="evenodd" fill="#DAF7F1" d="M290.336,8.077c-1.45,1.114,0.278,3.362,1.728,2.248
		C293.513,9.211,291.785,6.963,290.336,8.077z"/>
	<path fill-rule="evenodd" clip-rule="evenodd" fill="#DAF7F1" d="M279.694,48.196c-1.45,1.114,0.278,3.362,1.727,2.248
		C282.871,49.33,281.143,47.082,279.694,48.196z"/>
	<path fill-rule="evenodd" clip-rule="evenodd" fill="#FFFFFF" d="M300.999,38.854c-0.446-0.581-1.408-0.772-1.988-0.26
		c-0.658,0.581-0.967,1.531-0.38,2.295c0.597,0.776,1.583,0.755,2.338,0.252c0.644-0.429,0.707-1.407,0.26-1.988
		c-0.04-0.052-0.086-0.094-0.13-0.138C301.068,38.961,301.039,38.906,300.999,38.854z"/>
	<path fill-rule="evenodd" clip-rule="evenodd" fill="#FFFFFF" d="M284.089,10.494l-0.299,0.23c-0.613,0.471-0.731,1.375-0.26,1.988
		s1.375,0.731,1.988,0.26l0.299-0.23c0.613-0.471,0.731-1.375,0.26-1.988S284.701,10.023,284.089,10.494z"/>
	<path fill-rule="evenodd" clip-rule="evenodd" fill="#FFFFFF" d="M315.465,42.634c-1.45,1.114,0.278,3.362,1.728,2.248
		C318.642,43.768,316.914,41.52,315.465,42.634z"/>
	<path fill-rule="evenodd" clip-rule="evenodd" fill="#FFFFFF" d="M336.758,46.769c-0.613,0.471-0.731,1.376-0.26,1.988l0.23,0.299
		c0.471,0.613,1.375,0.731,1.988,0.26c0.612-0.47,0.731-1.375,0.26-1.988l-0.23-0.299C338.275,46.417,337.37,46.298,336.758,46.769z
		"/>
	<path fill-rule="evenodd" clip-rule="evenodd" fill="#FFFFFF" d="M274.76,52.941c-1.45,1.114,0.278,3.362,1.728,2.248
		C277.937,54.076,276.209,51.828,274.76,52.941z"/>
	<path fill-rule="evenodd" clip-rule="evenodd" fill="#FFFFFF" d="M298.697,30.121c-0.613,0.471-0.731,1.375-0.26,1.988l0.295,0.384
		c0.47,0.612,1.375,0.731,1.988,0.26c0.612-0.47,0.73-1.375,0.26-1.987l-0.295-0.384C300.213,29.769,299.309,29.651,298.697,30.121z
		"/>
</g>
<g>
	<path fill-rule="evenodd" clip-rule="evenodd" fill="#990A58" d="M264.816,46.435c-0.632,1.261-2.006,2.575-4.031,3.803
		c-5.152,3.153-14.471,5.781-26.098,5.693c-0.061,5.649-3.535,27.805-9.635,27.068c-8.933-1.081-16.706-21.383-17.551-22.304
		c-10.111,1.542-18.89,2.653-25.253-2.635c-3.064-3.202,2.413-12.773,15.714-23.186c-7.348-18.048-6.988-28.831-1.492-30.192
		c6.833-0.951,13.628,2.407,25.498,10.436C233.025,4.083,241.593,1.99,246.762,2.535c4.879,2.696,5.255,11.339-2.187,25.992
		C253.833,33.33,264.154,42.354,264.816,46.435L264.816,46.435z"/>
	<path fill-rule="evenodd" clip-rule="evenodd" fill="#DB4535" d="M224.353,51.114l-0.224,0.172
		c-1.92,1.476-2.291,4.309-0.815,6.229c1.476,1.92,4.309,2.291,6.229,0.816l0.224-0.172c1.919-1.475,2.29-4.309,0.815-6.229
		C229.106,50.009,226.273,49.639,224.353,51.114z"/>
	<path fill-rule="evenodd" clip-rule="evenodd" fill="#DB4535" d="M231.25,42.717c-3.189,2.451,0.611,7.396,3.8,4.945
		C238.239,45.212,234.439,40.267,231.25,42.717z"/>
	<path fill-rule="evenodd" clip-rule="evenodd" fill="#DB4535" d="M216.072,18.627c-3.189,2.451,0.612,7.396,3.801,4.945
		C223.061,21.121,219.261,16.176,216.072,18.627z"/>
	<path fill-rule="evenodd" clip-rule="evenodd" fill="#DB4535" d="M226.949,63.184c-1.885,1.448,0.361,4.37,2.246,2.922
		C231.08,64.658,228.834,61.736,226.949,63.184z"/>
	<path fill-rule="evenodd" clip-rule="evenodd" fill="#DB4535" d="M241.008,17.577c-1.348,1.036-1.608,3.025-0.572,4.374l0.23,0.299
		c1.035,1.347,3.025,1.608,4.372,0.572c1.348-1.036,1.608-3.025,0.573-4.372l-0.23-0.299
		C244.346,16.802,242.356,16.542,241.008,17.577z"/>
	<path fill-rule="evenodd" clip-rule="evenodd" fill="#DB4535" d="M250.947,39.02l-0.384,0.295
		c-1.348,1.036-1.608,3.025-0.573,4.373s3.025,1.608,4.373,0.572l0.384-0.295c1.348-1.036,1.608-3.025,0.572-4.373
		S252.295,37.984,250.947,39.02z"/>
	<path fill-rule="evenodd" clip-rule="evenodd" fill="#FF886C" d="M215.836,30.726l-0.3,0.231c-1.348,1.036-1.608,3.025-0.572,4.373
		c1.036,1.348,3.025,1.608,4.373,0.572l0.3-0.231c1.348-1.036,1.608-3.025,0.572-4.373C219.173,29.951,217.184,29.69,215.836,30.726
		z"/>
	<path fill-rule="evenodd" clip-rule="evenodd" fill="#FF886C" d="M198.489,14.978c-3.189,2.451,0.612,7.396,3.8,4.945
		C205.478,17.472,201.678,12.527,198.489,14.978z"/>
	<path fill-rule="evenodd" clip-rule="evenodd" fill="#FF886C" d="M198.532,42.549c-0.365-0.3-1.072-0.607-1.549-0.622
		c-0.881-0.03-1.06,0.034-1.922,0.269c-0.095,0.026-0.19,0.056-0.285,0.088c-1.607,0.552-2.328,2.556-1.714,4.065
		c0.315,0.773,0.94,1.4,1.713,1.714c0.333,0.135,0.666,0.192,0.999,0.206c0.887,0.209,1.857,0.044,2.607-0.553
		c0.704-0.56,1.282-1.334,1.368-2.261C199.856,44.288,199.439,43.292,198.532,42.549z"/>
	<path fill-rule="evenodd" clip-rule="evenodd" fill="#FF886C" d="M199.861,38.475l-0.299,0.23c-0.613,0.471-0.73,1.375-0.26,1.988
		c0.471,0.613,1.375,0.731,1.987,0.26l0.299-0.23c0.613-0.471,0.731-1.375,0.26-1.988C201.378,38.123,200.474,38.004,199.861,38.475
		z"/>
	<path fill-rule="evenodd" clip-rule="evenodd" fill="#FF886C" d="M215.485,42.676c-1.45,1.114,0.278,3.362,1.727,2.248
		C218.662,43.81,216.934,41.562,215.485,42.676z"/>
	<path fill-rule="evenodd" clip-rule="evenodd" fill="#FF886C" d="M222.084,25.209c-1.45,1.114,0.278,3.362,1.727,2.248
		C225.261,26.343,223.533,24.095,222.084,25.209z"/>
	<path fill-rule="evenodd" clip-rule="evenodd" fill="#FF886C" d="M200.336,8.077c-1.45,1.114,0.278,3.362,1.728,2.248
		C203.513,9.211,201.785,6.963,200.336,8.077z"/>
	<path fill-rule="evenodd" clip-rule="evenodd" fill="#FF886C" d="M189.694,48.196c-1.45,1.114,0.278,3.362,1.727,2.248
		C192.871,49.33,191.143,47.082,189.694,48.196z"/>
	<path fill-rule="evenodd" clip-rule="evenodd" fill="#FFFFFF" d="M210.999,38.854c-0.446-0.581-1.408-0.772-1.988-0.26
		c-0.658,0.581-0.967,1.531-0.38,2.295c0.597,0.776,1.583,0.755,2.338,0.252c0.644-0.429,0.707-1.407,0.261-1.988
		c-0.04-0.052-0.086-0.094-0.13-0.138C211.067,38.961,211.039,38.906,210.999,38.854z"/>
	<path fill-rule="evenodd" clip-rule="evenodd" fill="#FFFFFF" d="M194.089,10.494l-0.299,0.23c-0.613,0.471-0.731,1.375-0.26,1.988
		s1.375,0.731,1.988,0.26l0.299-0.23c0.613-0.471,0.731-1.375,0.26-1.988S194.701,10.023,194.089,10.494z"/>
	<path fill-rule="evenodd" clip-rule="evenodd" fill="#FFFFFF" d="M225.465,42.634c-1.45,1.114,0.278,3.362,1.728,2.248
		C228.642,43.768,226.914,41.52,225.465,42.634z"/>
	<path fill-rule="evenodd" clip-rule="evenodd" fill="#FFFFFF" d="M246.758,46.769c-0.613,0.471-0.731,1.376-0.26,1.988l0.23,0.299
		c0.471,0.613,1.375,0.731,1.988,0.26c0.612-0.47,0.731-1.375,0.26-1.988l-0.23-0.299C248.275,46.417,247.37,46.298,246.758,46.769z
		"/>
	<path fill-rule="evenodd" clip-rule="evenodd" fill="#FFFFFF" d="M184.76,52.941c-1.45,1.114,0.278,3.362,1.728,2.248
		C187.937,54.076,186.209,51.828,184.76,52.941z"/>
	<path fill-rule="evenodd" clip-rule="evenodd" fill="#FFFFFF" d="M208.697,30.121c-0.613,0.471-0.731,1.375-0.26,1.988l0.295,0.384
		c0.47,0.612,1.375,0.731,1.988,0.26c0.612-0.47,0.73-1.375,0.26-1.987l-0.295-0.384C210.213,29.769,209.309,29.651,208.697,30.121z
		"/>
</g>
<g>
	<path fill-rule="evenodd" clip-rule="evenodd" fill="#55821A" d="M174.816,46.435c-0.632,1.261-2.006,2.575-4.031,3.803
		c-5.152,3.153-14.471,5.781-26.098,5.693c-0.061,5.649-3.535,27.805-9.635,27.068c-8.933-1.081-16.706-21.383-17.551-22.304
		c-10.111,1.542-18.89,2.653-25.253-2.635c-3.064-3.202,2.413-12.773,15.714-23.186c-7.348-18.048-6.988-28.831-1.492-30.192
		c6.833-0.951,13.628,2.407,25.498,10.436C143.025,4.083,151.593,1.99,156.762,2.535c4.879,2.696,5.255,11.339-2.187,25.992
		C163.833,33.33,174.154,42.354,174.816,46.435L174.816,46.435z"/>
	<path fill-rule="evenodd" clip-rule="evenodd" fill="#AEEA1C" d="M134.353,51.114l-0.224,0.172
		c-1.92,1.476-2.291,4.309-0.815,6.229c1.476,1.92,4.309,2.291,6.229,0.816l0.224-0.172c1.919-1.475,2.29-4.309,0.815-6.229
		C139.106,50.009,136.273,49.639,134.353,51.114z"/>
	<path fill-rule="evenodd" clip-rule="evenodd" fill="#AEEA1C" d="M141.25,42.717c-3.189,2.451,0.611,7.396,3.8,4.945
		C148.239,45.212,144.439,40.267,141.25,42.717z"/>
	<path fill-rule="evenodd" clip-rule="evenodd" fill="#AEEA1C" d="M126.072,18.627c-3.189,2.451,0.612,7.396,3.801,4.945
		C133.061,21.121,129.261,16.176,126.072,18.627z"/>
	<path fill-rule="evenodd" clip-rule="evenodd" fill="#AEEA1C" d="M136.949,63.184c-1.885,1.448,0.361,4.37,2.246,2.922
		C141.08,64.658,138.834,61.736,136.949,63.184z"/>
	<path fill-rule="evenodd" clip-rule="evenodd" fill="#AEEA1C" d="M151.008,17.577c-1.348,1.036-1.608,3.025-0.572,4.374l0.23,0.299
		c1.035,1.347,3.025,1.608,4.372,0.572c1.348-1.036,1.608-3.025,0.573-4.372l-0.23-0.299
		C154.346,16.802,152.356,16.542,151.008,17.577z"/>
	<path fill-rule="evenodd" clip-rule="evenodd" fill="#AEEA1C" d="M160.947,39.02l-0.384,0.295
		c-1.348,1.036-1.608,3.025-0.573,4.373s3.025,1.608,4.373,0.572l0.384-0.295c1.348-1.036,1.608-3.025,0.572-4.373
		S162.295,37.984,160.947,39.02z"/>
	<path fill-rule="evenodd" clip-rule="evenodd" fill="#EAF78D" d="M125.836,30.726l-0.3,0.231c-1.348,1.036-1.608,3.025-0.572,4.373
		c1.036,1.348,3.025,1.608,4.373,0.572l0.3-0.231c1.348-1.036,1.608-3.025,0.572-4.373C129.173,29.951,127.184,29.69,125.836,30.726
		z"/>
	<path fill-rule="evenodd" clip-rule="evenodd" fill="#EAF78D" d="M108.489,14.978c-3.189,2.451,0.612,7.396,3.8,4.945
		C115.478,17.472,111.678,12.527,108.489,14.978z"/>
	<path fill-rule="evenodd" clip-rule="evenodd" fill="#EAF78D" d="M108.532,42.549c-0.365-0.3-1.072-0.607-1.549-0.622
		c-0.881-0.03-1.06,0.034-1.922,0.269c-0.095,0.026-0.19,0.056-0.285,0.088c-1.607,0.552-2.328,2.556-1.714,4.065
		c0.315,0.773,0.94,1.4,1.713,1.714c0.333,0.135,0.666,0.192,0.999,0.206c0.887,0.209,1.857,0.044,2.607-0.553
		c0.704-0.56,1.282-1.334,1.368-2.261C109.856,44.288,109.439,43.292,108.532,42.549z"/>
	<path fill-rule="evenodd" clip-rule="evenodd" fill="#EAF78D" d="M109.861,38.475l-0.299,0.23c-0.613,0.471-0.73,1.375-0.26,1.988
		c0.471,0.613,1.375,0.731,1.987,0.26l0.299-0.23c0.613-0.471,0.731-1.375,0.26-1.988C111.378,38.123,110.474,38.004,109.861,38.475
		z"/>
	<path fill-rule="evenodd" clip-rule="evenodd" fill="#EAF78D" d="M125.485,42.676c-1.45,1.114,0.278,3.362,1.727,2.248
		C128.662,43.81,126.934,41.562,125.485,42.676z"/>
	<path fill-rule="evenodd" clip-rule="evenodd" fill="#EAF78D" d="M132.084,25.209c-1.45,1.114,0.278,3.362,1.727,2.248
		C135.261,26.343,133.533,24.095,132.084,25.209z"/>
	<path fill-rule="evenodd" clip-rule="evenodd" fill="#EAF78D" d="M110.336,8.077c-1.45,1.114,0.278,3.362,1.728,2.248
		S111.785,6.963,110.336,8.077z"/>
	<path fill-rule="evenodd" clip-rule="evenodd" fill="#EAF78D" d="M99.694,48.196c-1.45,1.114,0.278,3.362,1.727,2.248
		C102.871,49.33,101.143,47.082,99.694,48.196z"/>
	<path fill-rule="evenodd" clip-rule="evenodd" fill="#FFFFFF" d="M120.999,38.854c-0.446-0.581-1.408-0.772-1.988-0.26
		c-0.658,0.581-0.967,1.531-0.38,2.295c0.597,0.776,1.583,0.755,2.338,0.252c0.644-0.429,0.707-1.407,0.26-1.988
		c-0.04-0.052-0.086-0.094-0.13-0.138C121.067,38.961,121.039,38.906,120.999,38.854z"/>
	<path fill-rule="evenodd" clip-rule="evenodd" fill="#FFFFFF" d="M104.089,10.494l-0.299,0.23c-0.613,0.471-0.731,1.375-0.26,1.988
		s1.375,0.731,1.988,0.26l0.299-0.23c0.613-0.471,0.731-1.375,0.26-1.988S104.701,10.023,104.089,10.494z"/>
	<path fill-rule="evenodd" clip-rule="evenodd" fill="#FFFFFF" d="M135.465,42.634c-1.45,1.114,0.278,3.362,1.728,2.248
		C138.642,43.768,136.914,41.52,135.465,42.634z"/>
	<path fill-rule="evenodd" clip-rule="evenodd" fill="#FFFFFF" d="M156.758,46.769c-0.613,0.471-0.731,1.376-0.26,1.988l0.23,0.299
		c0.471,0.613,1.375,0.731,1.988,0.26c0.612-0.47,0.731-1.375,0.26-1.988l-0.23-0.299C158.275,46.417,157.37,46.298,156.758,46.769z
		"/>
	<path fill-rule="evenodd" clip-rule="evenodd" fill="#FFFFFF" d="M94.76,52.941c-1.45,1.114,0.278,3.362,1.728,2.248
		C97.937,54.076,96.209,51.828,94.76,52.941z"/>
	<path fill-rule="evenodd" clip-rule="evenodd" fill="#FFFFFF" d="M118.697,30.121c-0.613,0.471-0.731,1.375-0.26,1.988l0.295,0.384
		c0.47,0.612,1.375,0.731,1.988,0.26c0.612-0.47,0.73-1.375,0.26-1.987l-0.295-0.384C120.213,29.769,119.309,29.651,118.697,30.121z
		"/>
</g>
<g>
	<path fill-rule="evenodd" clip-rule="evenodd" fill="#F2604C" d="M85.816,46.435c-0.632,1.261-2.006,2.575-4.031,3.803
		c-5.152,3.153-14.471,5.781-26.098,5.693c-0.061,5.649-3.535,27.805-9.635,27.068c-8.933-1.081-16.706-21.383-17.551-22.304
		C18.39,62.236,9.611,63.347,3.248,58.06c-3.064-3.202,2.413-12.773,15.714-23.186C11.614,16.826,11.974,6.043,17.47,4.682
		c6.833-0.951,13.628,2.407,25.498,10.436C54.025,4.083,62.593,1.99,67.762,2.535c4.879,2.696,5.255,11.339-2.187,25.992
		C74.833,33.33,85.154,42.354,85.816,46.435L85.816,46.435z"/>
	<path fill-rule="evenodd" clip-rule="evenodd" fill="#DB4535" d="M45.353,51.114l-0.224,0.172c-1.92,1.476-2.291,4.309-0.815,6.229
		c1.476,1.92,4.309,2.291,6.229,0.816l0.224-0.172c1.919-1.475,2.29-4.309,0.815-6.229C50.106,50.009,47.273,49.639,45.353,51.114z"
		/>
	<path fill-rule="evenodd" clip-rule="evenodd" fill="#DB4535" d="M52.25,42.717c-3.189,2.451,0.611,7.396,3.8,4.945
		C59.239,45.212,55.439,40.267,52.25,42.717z"/>
	<path fill-rule="evenodd" clip-rule="evenodd" fill="#DB4535" d="M37.072,18.627c-3.189,2.451,0.612,7.396,3.801,4.945
		C44.061,21.121,40.261,16.176,37.072,18.627z"/>
	<path fill-rule="evenodd" clip-rule="evenodd" fill="#DB4535" d="M47.949,63.184c-1.885,1.448,0.361,4.37,2.246,2.922
		C52.08,64.658,49.834,61.736,47.949,63.184z"/>
	<path fill-rule="evenodd" clip-rule="evenodd" fill="#DB4535" d="M62.008,17.577c-1.348,1.036-1.608,3.025-0.572,4.374l0.23,0.299
		c1.035,1.347,3.025,1.608,4.372,0.572c1.348-1.036,1.608-3.025,0.573-4.372l-0.23-0.299C65.346,16.802,63.356,16.542,62.008,17.577
		z"/>
	<path fill-rule="evenodd" clip-rule="evenodd" fill="#DB4535" d="M71.947,39.02l-0.384,0.295c-1.348,1.036-1.608,3.025-0.573,4.373
		c1.036,1.348,3.025,1.608,4.373,0.572l0.384-0.295c1.348-1.036,1.608-3.025,0.572-4.373S73.295,37.984,71.947,39.02z"/>
	<path fill-rule="evenodd" clip-rule="evenodd" fill="#FF886C" d="M36.836,30.726l-0.3,0.231c-1.348,1.036-1.608,3.025-0.572,4.373
		c1.036,1.348,3.025,1.608,4.373,0.572l0.3-0.231c1.348-1.036,1.608-3.025,0.572-4.373C40.173,29.951,38.184,29.69,36.836,30.726z"
		/>
	<path fill-rule="evenodd" clip-rule="evenodd" fill="#FF886C" d="M19.489,14.978c-3.189,2.451,0.612,7.396,3.8,4.945
		C26.478,17.472,22.678,12.527,19.489,14.978z"/>
	<path fill-rule="evenodd" clip-rule="evenodd" fill="#FF886C" d="M19.532,42.549c-0.365-0.3-1.072-0.607-1.549-0.622
		c-0.881-0.03-1.06,0.034-1.922,0.269c-0.095,0.026-0.19,0.056-0.285,0.088c-1.607,0.552-2.328,2.556-1.714,4.065
		c0.315,0.773,0.94,1.4,1.713,1.714c0.333,0.135,0.666,0.192,0.999,0.206c0.887,0.209,1.857,0.044,2.607-0.553
		c0.704-0.56,1.282-1.334,1.368-2.261C20.856,44.288,20.439,43.292,19.532,42.549z"/>
	<path fill-rule="evenodd" clip-rule="evenodd" fill="#FF886C" d="M20.861,38.475l-0.299,0.23c-0.613,0.471-0.73,1.375-0.26,1.988
		c0.471,0.613,1.375,0.731,1.987,0.26l0.299-0.23c0.613-0.471,0.731-1.375,0.26-1.988C22.378,38.123,21.474,38.004,20.861,38.475z"
		/>
	<path fill-rule="evenodd" clip-rule="evenodd" fill="#FF886C" d="M36.485,42.676c-1.45,1.114,0.278,3.362,1.727,2.248
		C39.662,43.81,37.934,41.562,36.485,42.676z"/>
	<path fill-rule="evenodd" clip-rule="evenodd" fill="#FF886C" d="M43.084,25.209c-1.45,1.114,0.278,3.362,1.727,2.248
		C46.261,26.343,44.533,24.095,43.084,25.209z"/>
	<path fill-rule="evenodd" clip-rule="evenodd" fill="#FF886C" d="M21.336,8.077c-1.45,1.114,0.278,3.362,1.728,2.248
		C24.513,9.211,22.785,6.963,21.336,8.077z"/>
	<path fill-rule="evenodd" clip-rule="evenodd" fill="#FF886C" d="M10.694,48.196c-1.45,1.114,0.278,3.362,1.727,2.248
		C13.871,49.33,12.143,47.082,10.694,48.196z"/>
	<path fill-rule="evenodd" clip-rule="evenodd" fill="#FFFFFF" d="M31.999,38.854c-0.446-0.581-1.408-0.772-1.988-0.26
		c-0.658,0.581-0.967,1.531-0.38,2.295c0.597,0.776,1.583,0.755,2.338,0.252c0.644-0.429,0.707-1.407,0.26-1.988
		c-0.04-0.052-0.086-0.094-0.13-0.138C32.067,38.961,32.039,38.906,31.999,38.854z"/>
	<path fill-rule="evenodd" clip-rule="evenodd" fill="#FFFFFF" d="M15.089,10.494l-0.299,0.23c-0.613,0.471-0.731,1.375-0.26,1.988
		s1.375,0.731,1.988,0.26l0.299-0.23c0.613-0.471,0.731-1.375,0.26-1.988C16.605,10.141,15.701,10.023,15.089,10.494z"/>
	<path fill-rule="evenodd" clip-rule="evenodd" fill="#FFFFFF" d="M46.465,42.634c-1.45,1.114,0.278,3.362,1.728,2.248
		C49.642,43.768,47.914,41.52,46.465,42.634z"/>
	<path fill-rule="evenodd" clip-rule="evenodd" fill="#FFFFFF" d="M67.758,46.769c-0.613,0.471-0.731,1.376-0.26,1.988l0.23,0.299
		c0.471,0.613,1.375,0.731,1.988,0.26c0.612-0.47,0.731-1.375,0.26-1.988l-0.23-0.299C69.275,46.417,68.37,46.298,67.758,46.769z"/>
	<path fill-rule="evenodd" clip-rule="evenodd" fill="#FFFFFF" d="M5.76,52.941c-1.45,1.114,0.278,3.362,1.728,2.248
		C8.937,54.076,7.209,51.828,5.76,52.941z"/>
	<path fill-rule="evenodd" clip-rule="evenodd" fill="#FFFFFF" d="M29.697,30.121c-0.613,0.471-0.731,1.375-0.26,1.988l0.295,0.384
		c0.47,0.612,1.375,0.731,1.988,0.26c0.612-0.47,0.73-1.375,0.26-1.987l-0.295-0.384C31.213,29.769,30.309,29.651,29.697,30.121z"/>
</g>
</svg>
